<svg xmlns="http://www.w3.org/2000/svg" style="display: none;">
  
    <symbol id="icon-search" viewBox="0 0 512 512">
      <path d="m493 416l-125-125c18-29 29-62 29-99 0-106-86-192-192-192-106 0-192 86-192 192 0 106 86 192 192 192 36 0 70-11 99-28l125 124c9 9 23 9 32 0l32-32c9-9 9-23 0-32z m-288-96c-71 0-128-57-128-128 0-71 57-128 128-128 70 0 128 57 128 128 0 71-58 128-128 128z"/>
    </symbol>
  
    <symbol id="icon-run" viewBox="0 0 512 512">
      <path d="m128 96l256 160-256 160z"/>
    </symbol>
  
    <symbol id="icon-copy" viewBox="0 0 512 512">
      <path d="m485 110c7 0 14 2 19 8c5 5 8 12 8 19l0 348c0 7-3 14-8 19c-5 5-12 8-19 8l-275 0c-7 0-14-3-19-8c-5-5-8-12-8-19l0-83l-156 0c-7 0-14-2-19-8c-5-5-8-12-8-19l0-192c0-8 2-16 6-25c4-9 8-17 13-22l117-117c5-5 13-9 22-13c9-4 17-6 25-6l119 0c7 0 14 3 19 8c5 5 8 12 8 19l0 94c13-7 25-11 37-11z m-156 61l-85 85l85 0z m-183-110l-85 85l85 0z m56 185l91-91l0-118l-110 0l0 118c0 8-3 15-8 20c-5 5-12 8-20 8l-118 0l0 183l146 0l0-73c0-8 2-16 6-26c3-9 8-16 13-21z m273 229l0-329l-109 0l0 119c0 8-3 14-8 20c-6 5-12 8-20 8l-119 0l0 182z"/>
    </symbol>
  
    <symbol id="icon-list-unordered" viewBox="0 0 512 512">
      <path d="m64 288l64 0 0-64-64 0z m0-128l64 0 0-64-64 0z m0 256l64 0 0-64-64 0z m128-128l256 0 0-64-256 0z m0-128l256 0 0-64-256 0z m0 256l256 0 0-64-256 0z"/>
    </symbol>
  
    <symbol id="icon-arrow-combo" viewBox="0 0 512 512">
      <path d="m256 0c0 0 118 186 118 186c0 0-236 0-236 0c0 0 118-186 118-186m0 512c0 0-118-187-118-187c0 0 236 0 236 0c0 0-118 187-118 187"/>
    </symbol>
  
    <symbol id="icon-arrow-curved" viewBox="0 0 512 512">
      <path d="m409 307c-1 1-5 0-13-3-8-3-20-7-34-12-15-5-32-10-52-14-20-4-42-7-66-8-14 0-29 0-44 1-29 3-56 9-81 16-24 8-45 17-63 25-17 8-31 17-40 22-5 3-8 5-11 6-2 2-4 2-5 2 0-1 0-2 2-5 2-2 5-5 9-9 8-7 21-18 39-28 17-11 38-22 64-30 25-9 54-16 85-19 16-1 31-2 47-1 25 2 48 6 69 11 20 6 38 13 52 20 14 6 25 13 32 18 7 4 10 7 10 8z m-97 57c0-1 5-3 15-6 10-2 24-4 41-6 17-2 38-4 62-6 23-2 48-4 75-6-6-4-12-9-18-14-22-19-40-39-55-59-15-20-27-39-36-55-21-40-32-65-30-67 2-2 19 21 43 59 11 17 23 37 37 58 14 21 31 44 51 64 5 6 11 11 16 16-28 5-55 9-79 12-24 3-45 6-63 8-18 2-33 3-43 3-10 1-16 0-16-1z"/>
    </symbol>
  
    <symbol id="icon-three-bars" viewBox="0 0 512 512">
      <path d="m64 96l0 64 384 0 0-64z m0 192l384 0 0-64-384 0z m0 128l384 0 0-64-384 0z"/>
    </symbol>
  
    <symbol id="icon-save" viewBox="0 0 512 512">
      <path d="m448 416l32 0l0 32l-32 0z m-384-128l352 0l0 192l-352 0z m64-288l256 0l0 160l-256 0z m-128 0l0 512l512 0l0-448l-64-64z m288 32l64 0l0 96l-64 0z m-160 384l224 0l0 32l-224 0z m0-64l160 0l0 32l-160 0z"/>
    </symbol>
  
    <symbol id="icon-share" viewBox="0 0 512 512">
      <path d="m384 333c21 0 39 7 54 22c15 14 23 33 23 55c0 21-8 39-23 54c-15 15-33 22-54 22c-21 0-39-7-54-22c-15-15-23-33-23-54c0-2 0-5 1-8c0-2 0-4 0-6c0 0-133-80-133-80c-14 11-30 17-47 17c-21 0-39-8-54-23c-15-15-23-33-23-54c0-21 8-39 23-54c15-15 33-23 54-23c18 0 34 5 47 16c0 0 133-80 133-80c0-2 0-4 0-6c-1-3-1-5-1-7c0-21 8-39 23-54c15-15 33-22 54-22c21 0 39 7 54 22c15 14 23 33 23 54c0 22-8 40-23 55c-15 15-33 22-54 22c-18 0-33-5-46-16c0 0-134 80-134 80c0 2 1 7 1 13c0 5-1 10-1 12c0 0 134 80 134 80c12-10 28-15 46-15"/>
    </symbol>
  
</svg>
