<?xml version="1.0" encoding="utf-8"?>
<!-- Generator: Adobe Illustrator 17.1.0, SVG Export Plug-In . SVG Version: 6.00 Build 0)  -->
<!DOCTYPE svg PUBLIC "-//W3C//DTD SVG 1.1//EN" "http://www.w3.org/Graphics/SVG/1.1/DTD/svg11.dtd">
<svg version="1.1" id="Layer_1" xmlns="http://www.w3.org/2000/svg" xmlns:xlink="http://www.w3.org/1999/xlink" x="0px" y="0px"
	 width="114px" height="20px" viewBox="0 0 114 20" enable-background="new 0 0 114 20" xml:space="preserve">
<g>
	<g>
		<path fill="#231F20" d="M34.6,12.8c-0.8,0.7-1.7,1.1-2.8,1.1c-1.1,0-2-0.4-2.8-1.1c-0.8-0.7-1.1-1.7-1.1-2.8s0.4-2,1.1-2.8
			c0.8-0.7,1.7-1.1,2.8-1.1s2,0.4,2.8,1.1s1.1,1.7,1.1,2.8C35.8,11.1,35.4,12,34.6,12.8z M34.1,10c0-0.7-0.2-1.2-0.6-1.7
			c-0.4-0.5-1-0.7-1.6-0.7s-1.2,0.2-1.6,0.7s-0.6,1-0.6,1.7s0.2,1.2,0.6,1.7s1,0.7,1.6,0.7s1.2-0.2,1.6-0.7
			C33.8,11.2,34.1,10.7,34.1,10z"/>
		<path fill="#231F20" d="M41.9,13.8h-3.3V6.3h2.9c0.5,0,0.9,0.1,1.3,0.2c0.4,0.1,0.6,0.3,0.8,0.5c0.3,0.4,0.5,0.8,0.5,1.3
			c0,0.6-0.2,1-0.6,1.3c-0.1,0.1-0.2,0.2-0.3,0.2s-0.1,0.1-0.3,0.1c0.5,0.1,0.8,0.3,1.1,0.6s0.4,0.7,0.4,1.2s-0.2,1-0.5,1.4
			C43.7,13.6,42.9,13.8,41.9,13.8z M40.3,9.3h0.8c0.5,0,0.8-0.1,1-0.2c0.2-0.1,0.3-0.3,0.3-0.7c0-0.3-0.1-0.6-0.3-0.7
			S41.5,7.5,41,7.5h-0.8L40.3,9.3L40.3,9.3z M40.3,12.4h1.1c0.5,0,0.8-0.1,1.1-0.2c0.2-0.1,0.4-0.4,0.4-0.7s-0.1-0.6-0.4-0.7
			c-0.3-0.1-0.7-0.2-1.2-0.2h-1C40.3,10.6,40.3,12.4,40.3,12.4z"/>
		<path fill="#231F20" d="M48.5,7.7V6.3h3.9v4.9c0,0.9-0.2,1.6-0.7,2s-1.1,0.7-1.8,0.7c-0.9,0-1.7-0.3-2.4-1l0.9-1.2
			c0.5,0.5,0.9,0.7,1.4,0.7c0.2,0,0.4-0.1,0.6-0.3c0.2-0.2,0.3-0.5,0.3-0.8V7.7H48.5z"/>
		<path fill="#231F20" d="M61.8,6.3v1.5h-3.7v1.6h3.4v1.4h-3.4v1.6H62v1.5h-5.5V6.3H61.8z"/>
		<path fill="#231F20" d="M69,12.3c0.8,0,1.5-0.3,2-1l1.1,1.1c-0.9,1-1.9,1.4-3,1.4c-1.2,0-2.1-0.4-2.9-1.1
			c-0.7-0.7-1.1-1.7-1.1-2.8s0.4-2.1,1.1-2.8c0.8-0.6,1.7-1,2.8-1c1.2,0,2.3,0.5,3.1,1.4l-1,1.2c-0.5-0.7-1.2-1-2-1
			c-0.6,0-1.2,0.2-1.6,0.6c-0.4,0.4-0.7,1-0.7,1.7s0.2,1.3,0.6,1.7C67.8,12.1,68.4,12.3,69,12.3z"/>
		<path fill="#231F20" d="M78.9,7.7v6.1h-1.7V7.7h-2.1V6.3H81v1.5h-2.1V7.7z"/>
		<path fill="#231F20" d="M83.8,13.6c-0.2-0.2-0.3-0.4-0.3-0.7s0.1-0.5,0.3-0.7c0.2-0.2,0.4-0.3,0.7-0.3s0.5,0.1,0.7,0.3
			s0.3,0.4,0.3,0.7s-0.1,0.5-0.3,0.7c-0.2,0.2-0.4,0.3-0.7,0.3S83.9,13.8,83.8,13.6z"/>
		<path fill="#231F20" d="M94.3,6.3H96v7.5h-1.7l-3.6-4.7v4.7H89V6.3h1.6l3.7,4.9C94.3,11.2,94.3,6.3,94.3,6.3z"/>
		<path fill="#231F20" d="M104.9,6.3v1.5h-3.7v1.6h3.4v1.4h-3.4v1.6h3.9v1.5h-5.5V6.3H104.9z"/>
		<path fill="#231F20" d="M111.9,7.7v6.1h-1.7V7.7h-2.1V6.3h5.9v1.5h-2.1V7.7z"/>
	</g>
	<path fill="#231F20" d="M8.6,11.4c0.8,0.8,2,0.8,2.7,0c0.8-0.8,0.8-2,0-2.7c-0.7-0.8-2-0.8-2.7,0C7.9,9.4,7.9,10.6,8.6,11.4z
		 M9.2,0C6.9,0.2,4.7,1.1,2.9,2.9C-1,6.8-1,13.2,2.9,17.1s10.2,3.9,14.1,0c1.8-1.8,2.7-4,2.9-6.3c0-0.1,0-0.2,0-0.3
		c0-0.2-0.1-0.3-0.2-0.5l-0.1-0.1c-0.4-0.4-1-0.4-1.4,0L18.1,10c-0.1,0.2-0.2,0.3-0.2,0.5l0,0c-0.1,1.9-0.9,3.8-2.3,5.2
		c-3.1,3.1-8.2,3.1-11.3,0s-3.1-8.2,0-11.4C5.7,2.9,7.6,2.1,9.4,2l0,0C9.6,2,9.8,1.9,10,1.8l0.1-0.1c0.4-0.4,0.4-1,0-1.4L10,0.2
		C9.8,0.1,9.7,0,9.5,0C9.4,0,9.3,0,9.2,0z M5.7,14.3c2.3,2.4,6.1,2.4,8.5,0c2.3-2.4,2.3-6.2,0-8.5c-2.3-2.4-6.1-2.4-8.5,0
		C3.4,8.1,3.4,11.9,5.7,14.3z M12.8,7.2c1.5,1.5,1.5,4.1,0,5.6s-4,1.5-5.6,0c-1.5-1.6-1.5-4.1,0-5.6C8.7,5.6,11.2,5.6,12.8,7.2z"/>
</g>
</svg>
